<?xml version="1.0" encoding="iso-8859-1"?>
<!-- Generator: Adobe Illustrator 20.0.0, SVG Export Plug-In . SVG Version: 6.00 Build 0)  -->
<svg version="1.1" id="Layer_1" xmlns="http://www.w3.org/2000/svg" xmlns:xlink="http://www.w3.org/1999/xlink" x="0px" y="0px"
	 viewBox="0 0 40 40" style="enable-background:new 0 0 40 40;" xml:space="preserve">
<g>
	<g>
		<path style="fill:#FFEEA3;" d="M9.628,17.862l-0.202-0.046c-0.16-0.037-0.32-0.074-0.477-0.123l-0.198-0.061l-2.279,1.211
			l-0.091-2.591l-0.152-0.142c-0.118-0.109-0.23-0.223-0.341-0.341l-0.141-0.151l-2.59-0.09l1.211-2.279l-0.062-0.199
			c-0.048-0.155-0.086-0.315-0.122-0.476l-0.046-0.203L1.943,11l2.194-1.371l0.047-0.202c0.037-0.161,0.074-0.322,0.122-0.478
			L4.368,8.75L3.157,6.472l2.59-0.09L5.888,6.23c0.11-0.118,0.223-0.231,0.341-0.341l0.152-0.142l0.091-2.591l2.279,1.211
			l0.198-0.061c0.156-0.048,0.316-0.085,0.477-0.123l0.202-0.046L11,1.943l1.372,2.195l0.202,0.046
			c0.16,0.037,0.32,0.074,0.477,0.123l0.198,0.061l2.279-1.211l0.091,2.591l0.152,0.142c0.118,0.109,0.23,0.223,0.341,0.341
			l0.141,0.151l2.59,0.09L17.632,8.75l0.062,0.199c0.048,0.156,0.085,0.317,0.122,0.478l0.047,0.202L20.057,11l-2.195,1.372
			l-0.046,0.203c-0.036,0.16-0.074,0.32-0.122,0.476l-0.062,0.199l1.211,2.279l-2.59,0.09l-0.141,0.151
			c-0.11,0.118-0.223,0.231-0.341,0.341l-0.152,0.142l-0.091,2.591l-2.279-1.211l-0.198,0.061c-0.156,0.048-0.316,0.085-0.477,0.123
			l-0.202,0.046L11,20.057L9.628,17.862z"/>
	</g>
	<g>
		<path style="fill:#BA9B48;" d="M11,2.887l0.838,1.34l0.22,0.352l0.404,0.093c0.149,0.034,0.299,0.069,0.444,0.113l0.396,0.121
			l0.366-0.195l1.389-0.738l0.055,1.584l0.014,0.413l0.302,0.282c0.11,0.102,0.215,0.208,0.318,0.318l0.282,0.302l0.413,0.014
			l1.584,0.055l-0.738,1.389l-0.195,0.366l0.121,0.396c0.044,0.145,0.079,0.295,0.113,0.444l0.093,0.404l0.352,0.22L19.113,11
			l-1.34,0.838l-0.352,0.22l-0.093,0.404c-0.034,0.149-0.069,0.299-0.113,0.444l-0.121,0.396l0.195,0.366l0.738,1.389l-1.584,0.055
			l-0.413,0.014l-0.282,0.302c-0.102,0.11-0.208,0.215-0.318,0.318l-0.302,0.282l-0.014,0.413l-0.055,1.584l-1.389-0.738
			l-0.366-0.195l-0.396,0.121c-0.145,0.045-0.295,0.079-0.444,0.114l-0.404,0.093l-0.22,0.352L11,19.113l-0.838-1.34l-0.22-0.352
			l-0.404-0.093c-0.15-0.034-0.299-0.069-0.444-0.114l-0.396-0.121l-0.366,0.195l-1.389,0.738l-0.055-1.584l-0.014-0.413
			l-0.302-0.282c-0.11-0.102-0.215-0.208-0.318-0.318l-0.282-0.302l-0.413-0.014l-1.584-0.055l0.738-1.389l0.195-0.366l-0.121-0.396
			c-0.044-0.145-0.079-0.295-0.113-0.444l-0.093-0.404l-0.352-0.22L2.887,11l1.34-0.838l0.352-0.22l0.093-0.404
			c0.034-0.15,0.069-0.299,0.113-0.444l0.121-0.396L4.712,8.332L3.974,6.943l1.584-0.055l0.413-0.014l0.282-0.302
			c0.102-0.11,0.208-0.215,0.318-0.318l0.302-0.282l0.014-0.413l0.055-1.584l1.389,0.738l0.366,0.195l0.396-0.121
			C9.24,4.741,9.389,4.706,9.538,4.672l0.404-0.093l0.22-0.352L11,2.887 M11,1L9.314,3.697c-0.173,0.04-0.345,0.08-0.513,0.132
			L6,2.34L5.889,5.522C5.762,5.64,5.64,5.762,5.522,5.889L2.34,6l1.489,2.802c-0.051,0.168-0.092,0.34-0.132,0.513L1,11l2.697,1.686
			c0.04,0.173,0.08,0.345,0.132,0.513L2.34,16l3.183,0.111c0.118,0.126,0.24,0.248,0.366,0.366L6,19.66l2.801-1.489
			c0.168,0.051,0.34,0.092,0.513,0.132L11,21l1.686-2.697c0.173-0.04,0.345-0.08,0.513-0.132L16,19.66l0.111-3.183
			c0.126-0.118,0.248-0.24,0.366-0.366L19.66,16l-1.489-2.802c0.051-0.168,0.092-0.34,0.132-0.513L21,11l-2.697-1.686
			c-0.04-0.173-0.08-0.345-0.132-0.513L19.66,6l-3.183-0.111c-0.118-0.126-0.24-0.248-0.366-0.366L16,2.34l-2.802,1.489
			c-0.168-0.051-0.34-0.092-0.513-0.132L11,1L11,1z"/>
	</g>
</g>
<circle style="fill:#F5CE85;" cx="11" cy="11" r="5"/>
<g>
	<path style="fill:#BAE0BD;" d="M1.5,38.5V17.548c1.517-0.81,10.852-5.136,37-5.191V38.5H1.5z"/>
	<g>
		<path style="fill:#5E9C76;" d="M38,12.859V38H2V17.853C4.073,16.831,13.533,12.962,38,12.859 M39,11.857c-29.688,0-38,5.4-38,5.4
			V39h38V11.857L39,11.857z"/>
	</g>
</g>
<path style="fill:#93CC97;" d="M26.252,13.241c-0.591,0.038-1.168,0.078-1.733,0.121C19.369,16.866,9,27.022,9,38h2.714
	C11.714,26.178,21.512,16.874,26.252,13.241z"/>
<path style="fill:#93CC97;" d="M16.575,14.192c-0.769,0.106-1.5,0.217-2.2,0.33C10.121,17.376,2,25.396,2,31.25V38
	C2.271,26.423,11.866,17.592,16.575,14.192z"/>
<path style="fill:#93CC97;" d="M33.627,12.92c-0.495,0.012-0.975,0.027-1.457,0.042C29.941,14.515,19,23.449,19,38h2.714
	C21.714,23.225,31.842,14.303,33.627,12.92z"/>
<path style="fill:#93CC97;" d="M36.524,12.873C35.464,14.054,28,22.962,28,38h2.714c0-15.076,6.325-23.98,7.201-25.14
	C37.443,12.862,36.985,12.868,36.524,12.873z"/>
</svg>
